<?xml version="1.0" standalone="no"?>
<!DOCTYPE svg PUBLIC "-//W3C//DTD SVG 20010904//EN"
 "http://www.w3.org/TR/2001/REC-SVG-20010904/DTD/svg10.dtd">
<svg version="1.0" xmlns="http://www.w3.org/2000/svg"
 width="479.000000pt" height="709.000000pt" viewBox="0 0 479.000000 709.000000"
 preserveAspectRatio="xMidYMid meet">

<g transform="translate(0.000000,709.000000) scale(0.100000,-0.100000)"
fill="#000000" stroke="none">
<path d="M350 6984 c-30 -8 -73 -26 -96 -39 -61 -36 -139 -126 -166 -193 l-23
-57 -3 -3110 c-2 -2223 0 -3128 8 -3174 29 -170 150 -292 320 -321 47 -8 629
-10 2050 -8 l1985 3 58 24 c94 37 156 94 202 185 l40 79 3 3145 c2 3475 7
3199 -60 3304 -40 63 -89 105 -168 142 l-65 31 -2015 2 c-1751 2 -2022 0
-2070 -13z m4065 -203 c47 -22 89 -64 104 -104 15 -40 15 -6234 0 -6274 -13
-35 -54 -79 -94 -101 -28 -16 -186 -17 -1995 -20 -1453 -2 -1979 0 -2018 8
-74 16 -126 68 -142 142 -8 39 -10 847 -8 3143 l3 3090 22 36 c12 19 31 43 42
53 52 47 -26 45 2071 45 1902 1 1976 0 2015 -18z"/>
<path d="M537 6473 c-4 -3 -7 -635 -7 -1403 0 -1180 2 -1399 14 -1409 9 -8 57
-11 147 -9 l134 3 3 452 2 452 118 0 c91 0 131 4 182 20 117 38 196 115 243
239 21 56 22 67 25 711 3 635 2 657 -18 722 -23 78 -77 141 -151 177 -87 42
-166 52 -435 52 -138 0 -254 -3 -257 -7z m508 -337 c27 -12 36 -23 45 -55 7
-28 10 -216 8 -591 -3 -546 -3 -550 -24 -571 -44 -43 -174 -43 -218 0 -21 21
-21 25 -24 574 -2 386 0 563 8 590 8 28 20 42 43 52 42 18 119 19 162 1z"/>
<path d="M1945 6466 c-134 -32 -200 -78 -247 -173 l-33 -68 -3 -977 c-2 -686
1 -984 8 -998 10 -19 19 -20 148 -18 l137 3 5 168 c5 152 7 170 24 183 29 20
194 19 224 -2 l22 -15 0 -449 c0 -434 1 -450 19 -460 11 -5 71 -10 135 -10 91
0 118 3 130 16 14 14 16 143 16 1273 0 1365 2 1306 -55 1392 -61 93 -174 139
-355 145 -76 2 -135 -1 -175 -10z m230 -331 c21 -8 39 -25 45 -40 6 -16 10
-242 10 -592 0 -513 -2 -568 -17 -585 -14 -15 -32 -18 -119 -18 -98 0 -104 1
-119 24 -14 21 -15 90 -13 592 2 313 7 577 12 588 21 42 133 60 201 31z"/>
<path d="M3645 6465 c-130 -28 -207 -81 -252 -173 l-28 -57 0 -1005 0 -1005
26 -55 c64 -136 185 -194 404 -194 219 0 340 58 404 194 l26 55 3 980 c2 959
2 981 -18 1047 -34 113 -120 182 -266 213 -84 18 -218 18 -299 0z m230 -329
c27 -11 36 -23 45 -54 7 -28 9 -304 8 -881 l-3 -841 -28 -27 c-25 -26 -34 -28
-102 -28 -68 0 -77 2 -102 28 l-28 27 -3 843 c-2 597 0 853 8 880 8 28 20 42
43 52 42 18 119 19 162 1z"/>
<path d="M2796 6434 c-3 -9 -6 -631 -6 -1383 0 -1078 3 -1371 13 -1384 11 -16
38 -17 302 -15 l290 3 0 125 0 125 -145 5 -145 5 -5 1265 c-3 696 -6 1266 -8
1268 -1 1 -67 2 -146 2 -122 0 -145 -2 -150 -16z"/>
<path d="M1300 4070 l0 -91 -32 17 c-38 19 -101 14 -129 -12 -28 -26 -39 -78
-39 -194 1 -129 11 -178 45 -207 31 -27 99 -31 132 -8 19 13 22 13 27 -1 4
-11 18 -14 58 -12 l53 3 3 298 2 297 -60 0 -60 0 0 -90z m-12 -172 c13 -13 17
-192 6 -222 -7 -19 -45 -21 -62 -4 -8 8 -12 48 -12 113 0 103 7 125 40 125 9
0 21 -5 28 -12z"/>
<path d="M1585 4003 c-33 -9 -65 -35 -81 -64 -10 -20 -14 -65 -14 -162 0 -148
8 -170 70 -202 38 -20 133 -19 176 1 53 25 85 104 48 118 -36 14 -89 6 -102
-15 -19 -29 -64 -22 -76 12 -18 52 -6 59 104 59 l100 0 0 73 c0 123 -45 179
-147 183 -32 2 -67 0 -78 -3z m93 -105 c7 -7 12 -27 12 -46 0 -33 0 -33 -42
-30 -38 3 -43 6 -46 29 -5 45 46 77 76 47z"/>
<path d="M3780 3734 c-38 -60 -46 -89 -34 -123 21 -59 110 -60 134 -1 14 35 7
60 -36 124 l-33 49 -31 -49z"/>
<path d="M935 3360 c-167 -18 -273 -87 -322 -211 -17 -41 -18 -126 -21 -1300
-2 -827 1 -1266 8 -1283 l10 -27 137 3 138 3 5 451 c4 362 8 454 19 467 11 14
33 17 122 17 97 0 109 -2 119 -19 6 -13 10 -175 10 -458 0 -328 3 -442 12
-451 18 -18 262 -17 277 2 8 10 11 348 9 1292 l-3 1279 -23 46 c-28 58 -81
113 -133 139 -84 43 -233 64 -364 50z m183 -346 c13 -8 27 -26 32 -40 6 -15
10 -255 10 -588 0 -470 -2 -565 -14 -582 -13 -17 -27 -19 -120 -19 -73 0 -109
4 -118 13 -10 10 -14 125 -16 545 -2 293 0 556 3 584 4 29 14 62 24 74 31 39
147 46 199 13z"/>
<path d="M2100 3363 c-183 -17 -288 -75 -341 -188 l-29 -60 0 -1166 c0 -1309
-5 -1218 75 -1307 95 -106 298 -148 502 -106 128 26 203 77 251 168 l27 51 3
269 c3 214 1 271 -10 277 -22 15 -392 11 -411 -4 -15 -11 -17 -27 -15 -122 l3
-110 65 -5 65 -5 3 -71 c3 -64 0 -75 -22 -100 -23 -28 -29 -29 -106 -29 -77 0
-83 2 -106 28 l-24 28 0 1033 c0 976 1 1035 18 1056 19 24 97 43 138 35 13 -3
35 -7 49 -10 34 -7 49 -39 55 -120 l5 -70 145 0 145 0 3 131 c3 148 -12 207
-67 274 -69 84 -257 139 -421 123z"/>
<path d="M2986 3273 c-72 -111 -85 -151 -65 -206 34 -98 171 -119 236 -37 24
29 34 85 21 121 -13 40 -118 209 -129 209 -4 0 -32 -39 -63 -87z"/>
<path d="M3721 3345 c-134 -30 -219 -94 -258 -194 -17 -43 -18 -119 -21 -1315
-2 -1175 -1 -1270 14 -1288 15 -15 33 -18 131 -18 63 0 123 5 134 10 18 10 19
26 19 455 0 531 -13 485 135 485 148 0 135 46 135 -485 0 -429 1 -445 19 -455
11 -5 71 -10 135 -10 91 0 118 3 130 16 14 14 16 142 16 1264 0 843 -3 1265
-11 1299 -22 106 -99 184 -218 222 -87 28 -269 35 -360 14z m238 -330 c16 -8
34 -28 40 -46 8 -22 11 -207 11 -588 0 -488 -2 -559 -16 -579 -14 -20 -23 -22
-119 -22 -96 0 -105 2 -119 22 -14 20 -16 91 -16 579 0 380 3 566 11 588 6 17
23 38 38 46 34 19 134 19 170 0z"/>
<path d="M2915 2638 c-3 -7 -6 -200 -7 -428 l-3 -415 -25 -44 c-60 -105 -203
-110 -261 -8 l-24 42 -5 425 -5 425 -145 0 -145 0 -3 -440 c-1 -265 2 -461 8
-495 34 -187 155 -285 351 -284 73 0 94 4 143 28 31 15 66 41 78 57 12 16 25
29 29 29 4 0 9 -21 11 -47 l3 -48 124 -3 c82 -2 128 1 137 9 19 16 21 1178 2
1197 -17 17 -257 17 -263 0z"/>
<path d="M2937 1022 c-42 -65 -85 -138 -96 -163 -64 -139 30 -289 180 -289
101 0 178 62 200 161 15 63 -9 127 -101 268 -44 69 -80 128 -80 133 0 4 -6 8
-13 8 -8 0 -48 -53 -90 -118z"/>
</g>
</svg>
